<svg xmlns="http://www.w3.org/2000/svg" id="Layer_1" data-name="Layer 1" viewBox="12.07 1.64 37.32 49.69"><defs><style>.cls-1{fill:#fe0101;}.cls-2{fill:#fefefe;}</style></defs><path class="cls-1" d="M49.38,19.94a20.27,20.27,0,0,1-2,8.62,58.76,58.76,0,0,1-6.65,11.12A111.3,111.3,0,0,1,31,51.14c-.18.19-.3.32-.56,0A95.42,95.42,0,0,1,15.72,31.84a29.47,29.47,0,0,1-3.3-8.39,17.29,17.29,0,0,1,1.85-11.92A18,18,0,0,1,27.7,1.91,18.58,18.58,0,0,1,49,16.29c.13.55.21,1.11.29,1.68A11.25,11.25,0,0,1,49.38,19.94ZM30.73,32.73A12.42,12.42,0,1,0,18.32,20.36,12.43,12.43,0,0,0,30.73,32.73Z"/><path class="cls-2" d="M30.73,32.73A12.42,12.42,0,1,1,43.17,20.64,12.41,12.41,0,0,1,30.73,32.73Z"/><path class="cls-1" d="M24.77,25.5a1.33,1.33,0,0,0,0,2.66,1.33,1.33,0,1,0,0-2.66Z"/><path class="cls-1" d="M30.38,25.5a1.33,1.33,0,1,0,1.33,1.33A1.34,1.34,0,0,0,30.38,25.5Z"/><path class="cls-1" d="M32,21H36a1.75,1.75,0,0,0,1.26-.47,17,17,0,0,0,1.11-1.36h-5.1Z"/><path class="cls-1" d="M34.43,15.87l-1.36,1.84h5.69A1.74,1.74,0,0,0,40,17.24c.32-.31,1.11-1.37,1.11-1.37Z"/><path class="cls-1" d="M22.78,23.07a1.09,1.09,0,0,1-.52-1.36A1.07,1.07,0,0,1,23.34,21h6.13a2.61,2.61,0,0,0,1.31-.36,2.87,2.87,0,0,0,1.45-1.94,2.78,2.78,0,0,0-.1-1.59,2.82,2.82,0,0,0-1-1.36,2.45,2.45,0,0,0-1.42-.55H24.42a1.74,1.74,0,0,0-1.24.46A16.74,16.74,0,0,0,22.09,17h7.39a1.1,1.1,0,0,1-.19,2.2H23.42a3,3,0,0,0-1.7.46A2.88,2.88,0,0,0,20.37,22a2.79,2.79,0,0,0,.75,2,2.92,2.92,0,0,0,2.27,1H33.2a1.76,1.76,0,0,0,1.27-.47c.31-.3,1.11-1.36,1.11-1.36H23.25A1.13,1.13,0,0,1,22.78,23.07Z"/></svg>